<?xml version="1.0" encoding="utf-8"?>
<!-- Generator: Adobe Illustrator 18.1.1, SVG Export Plug-In . SVG Version: 6.00 Build 0)  -->
<svg version="1.1" xmlns="http://www.w3.org/2000/svg" xmlns:xlink="http://www.w3.org/1999/xlink" x="0px" y="0px"
	 viewBox="0 0 91.1 50.3" enable-background="new 0 0 91.1 50.3" xml:space="preserve">
<g id="Background">
</g>
<g id="Guides" display="none">
</g>
<g id="_x31_._Loading">
	<path d="M81,19.1C76.3,38,69,45.4,54.7,45.4h-8.8c6.9-5,11.6-14,14.8-27.7L65.5,0l-5.2,1.1l-4.8,18C50.7,38,43.3,45.4,29.1,45.4
		h-8.2h-0.6c6.9-5,11.6-14,14.8-27.7L39.8,0l-5.2,1.1l-4.8,18C25.1,38,17.7,45.4,3.4,45.4h0L0,50.3h3.4c0.5,0,1.3,0,1.3,0h16.1h8.2
		h25.6c16.8,0,26.3-9.7,31.7-32.6L91.1,0l-5.2,1.1L81,19.1z"/>
</g>
<g id="_x32_._Home_x2F_About">
</g>
<g id="_x33_._Work_Overview">
</g>
<g id="_x34_._Work_1">
</g>
<g id="_x34_._Work_2">
</g>
<g id="Navi">
</g>
</svg>
